<?xml version="1.0" encoding="UTF-8"?>
<svg id="Layer_2" data-name="Layer 2" xmlns="http://www.w3.org/2000/svg" xmlns:xlink="http://www.w3.org/1999/xlink" viewBox="0 0 737.77 164.33">
  <defs>
    <style>
      .cls-1 {
        fill: url(#linear-gradient-12);
      }

      .cls-1, .cls-2, .cls-3, .cls-4, .cls-5, .cls-6, .cls-7, .cls-8, .cls-9, .cls-10, .cls-11, .cls-12 {
        stroke-width: 0px;
      }

      .cls-2 {
        fill: url(#linear-gradient);
      }

      .cls-3 {
        fill: url(#linear-gradient-6);
      }

      .cls-4 {
        fill: url(#linear-gradient-11);
      }

      .cls-5 {
        fill: url(#linear-gradient-5);
      }

      .cls-6 {
        fill: #494949;
      }

      .cls-7 {
        fill: #fff;
      }

      .cls-8 {
        fill: url(#linear-gradient-7);
      }

      .cls-9 {
        fill: url(#linear-gradient-9);
      }

      .cls-10 {
        fill: url(#linear-gradient-8);
      }

      .cls-11 {
        fill: url(#linear-gradient-10);
      }

      .cls-12 {
        fill: url(#linear-gradient-4);
      }

      .cls-13 {
        fill: url(#linear-gradient-2);
        stroke: url(#linear-gradient-3);
        stroke-miterlimit: 10;
      }
    </style>
    <linearGradient id="linear-gradient" x1="34.06" y1="115.67" x2="159.38" y2="115.67" gradientTransform="translate(6.72 8.18) rotate(.51) scale(.91 .92) skewX(1.04)" gradientUnits="userSpaceOnUse">
      <stop offset="0" stop-color="#93e8fd"/>
      <stop offset=".5" stop-color="#ad63e7"/>
      <stop offset="1" stop-color="#f723da"/>
    </linearGradient>
    <linearGradient id="linear-gradient-2" x1="-7.59" y1="117.13" x2="117.73" y2="117.13" xlink:href="#linear-gradient"/>
    <linearGradient id="linear-gradient-3" x1="0" y1="116.26" x2="114.74" y2="116.26" gradientTransform="matrix(1,0,0,1,0,0)" xlink:href="#linear-gradient"/>
    <linearGradient id="linear-gradient-4" x1="18.51" y1="96.51" x2="137.32" y2="96.51" gradientTransform="translate(-23.24 31.55) rotate(-18.77)" xlink:href="#linear-gradient"/>
    <linearGradient id="linear-gradient-5" x1="70.27" y1="110.65" x2="111.37" y2="110.65" gradientTransform="translate(-23.24 31.55) rotate(-18.77)" xlink:href="#linear-gradient"/>
    <linearGradient id="linear-gradient-6" x1="67.27" y1="98.97" x2="80.35" y2="98.97" gradientTransform="translate(-23.24 31.55) rotate(-18.77)" xlink:href="#linear-gradient"/>
    <linearGradient id="linear-gradient-7" x1="96.41" y1="17.71" x2="109.75" y2="17.71" gradientTransform="translate(-23.24 31.55) rotate(-18.77)" gradientUnits="userSpaceOnUse">
      <stop offset="0" stop-color="#93e8fd"/>
      <stop offset=".69" stop-color="#ad63e7"/>
      <stop offset="1" stop-color="#f723da"/>
    </linearGradient>
    <linearGradient id="linear-gradient-8" x1="71.12" y1="19.36" x2="76.12" y2="19.36" xlink:href="#linear-gradient-7"/>
    <linearGradient id="linear-gradient-9" x1="43.06" y1="24.29" x2="52.92" y2="24.29" xlink:href="#linear-gradient-7"/>
    <linearGradient id="linear-gradient-10" x1="129.32" y1="56.12" x2="150.31" y2="56.12" xlink:href="#linear-gradient-7"/>
    <linearGradient id="linear-gradient-11" x1="114.39" y1="35.18" x2="134.18" y2="35.18" xlink:href="#linear-gradient-7"/>
    <linearGradient id="linear-gradient-12" x1="38.97" y1="70.71" x2="120.8" y2="70.71" gradientTransform="translate(-23.24 31.55) rotate(-18.77)" xlink:href="#linear-gradient"/>
  </defs>
  <g id="Layer_1-2" data-name="Layer 1">
    <g>
      <path class="cls-6" d="m186.99,44.54h20.32v77.32h46.81l-2.32,16.66h-64.81V44.54Z"/>
      <path class="cls-6" d="m324.46,120.28c0,6.72.54,16.53.95,18.23h-18.66c-.54-1.4-.95-5.11-.99-6.9-2.56,3.96-7.35,8.53-19.83,8.53-17.01,0-24.19-11.18-24.19-22.13,0-16.07,12.91-23.49,33.59-23.49h10.07v-4.31c0-5.02-1.8-9.95-10.86-9.95-8.25,0-10.05,3.5-10.95,8.61h-18.57c1.06-12.54,8.81-22.68,30.26-22.56,18.9.12,29.18,7.5,29.18,24.3v29.66Zm-19.04-13.89h-7.96c-11.77,0-16.14,3.59-16.14,10.4,0,5.11,3.13,9.41,10.16,9.41,12.41,0,13.94-8.63,13.94-17.95v-1.85Z"/>
      <path class="cls-6" d="m342.14,39.01h19.53v36.43c2.91-4.54,8.75-9.12,20.19-9.12,19.2,0,28.78,15.86,28.78,35.65s-10.39,38.17-30.67,38.17c-10.49,0-15.11-3.19-18.54-8.32,0,2.32-.38,4.9-.75,6.69h-18.68c.14-7.65.14-15.42.14-23.07V39.01Zm48.68,63.34c0-11.76-4.37-20.38-14.92-20.38-11.16,0-15.12,7.27-15.12,21.64,0,11.88,3.52,21.01,14.9,21.01,9.93,0,15.14-8.93,15.14-22.27Z"/>
      <path class="cls-6" d="m435.31,61.19h-28.55v-16.65h77.34v16.65h-28.45v77.32h-20.34V61.19Z"/>
      <path class="cls-6" d="m486.36,87.1c0-7.01-.02-13.24-.14-19.14h19.16c.26,1.58.51,8.58.51,12.39,3.11-8.06,10.64-13.96,22.64-14.02v18.64c-14.18-.37-22.64,3.45-22.64,22.79v30.76h-19.53v-51.42Z"/>
      <path class="cls-6" d="m596.27,120.28c0,6.72.54,16.53.95,18.23h-18.66c-.54-1.4-.95-5.11-.99-6.9-2.56,3.96-7.35,8.53-19.83,8.53-17.01,0-24.19-11.18-24.19-22.13,0-16.07,12.91-23.49,33.59-23.49h10.07v-4.31c0-5.02-1.8-9.95-10.86-9.95-8.25,0-10.05,3.5-10.95,8.61h-18.57c1.06-12.54,8.81-22.68,30.26-22.56,18.9.12,29.18,7.5,29.18,24.3v29.66Zm-19.04-13.89h-7.96c-11.77,0-16.14,3.59-16.14,10.4,0,5.11,3.13,9.41,10.16,9.41,12.41,0,13.94-8.63,13.94-17.95v-1.85Z"/>
      <path class="cls-6" d="m678.28,39.01v80.11c0,6.42,0,12.93.14,19.39h-18.78c-.39-2.12-.77-5.76-.89-7.37-3.41,5.55-9.48,9.01-20.02,9.01-17.84,0-29.19-14.33-29.19-36.33s12.07-37.49,32.04-37.49c10.15,0,15.6,3.58,17.17,6.74v-34.05h19.53Zm-48.68,64.29c0,13.75,5.36,21.2,14.92,21.2,13.43,0,14.98-11.2,14.98-21.34,0-12.06-1.71-21.19-14.47-21.19-10.25,0-15.43,8.01-15.43,21.33Z"/>
      <path class="cls-6" d="m695.6,87.1c0-7.01-.02-13.24-.14-19.14h19.16c.26,1.58.51,8.58.51,12.39,3.11-8.06,10.64-13.96,22.64-14.02v18.64c-14.18-.37-22.64,3.45-22.64,22.79v30.76h-19.53v-51.42Z"/>
    </g>
    <g>
      <polygon class="cls-2" points="96.31 162.55 151.85 94.09 136.04 68.71 54.31 67.7 38.33 94.27 96.31 162.55"/>
      <polygon class="cls-13" points="58.59 163.55 114.13 95.09 98.32 69.71 16.59 68.7 .61 95.27 58.59 163.55"/>
      <polygon class="cls-7" points="77.26 155.22 136.15 83.94 119.81 57.85 34.09 57.56 17.08 85.18 77.26 155.22"/>
      <g>
        <path class="cls-12" d="m34.56,59.46l85.77.87,14.34,23.24-57.59,68.75L19.2,84.03l15.35-24.56m-2.2-4.02l-18.09,28.94,62.84,74.14,62.49-74.6-17.02-27.57-90.22-.92h0Z"/>
        <polygon class="cls-5" points="114.23 89.94 83.54 127.37 111.04 87.53 114.23 89.94 114.23 89.94"/>
        <polygon class="cls-3" points="79.81 85.05 77.49 118.88 77 84.97 79.81 85.05 79.81 85.05"/>
      </g>
      <g>
        <path class="cls-8" d="m78.74,32.03C78.03,23.9,76.98,8.94,76.26,0c0,0,5.71.07,5.71.07-.93,8.97-2.32,23.82-3.23,31.96h0Z"/>
        <path class="cls-10" d="m57.78,40.26c-3.18-6.93-8.82-19.75-12.26-27.39,0,0,4.72-1.66,4.72-1.66,2.1,8.16,5.69,21.61,7.54,29.04h0Z"/>
        <path class="cls-9" d="m38.4,48.45c-1.97-2.05-5.9-6.36-8.14-8.75,0,0-8.3-8.94-8.3-8.94l2.32-1.9c3.97,5.54,10.44,14.42,14.11,19.59h0Z"/>
        <path class="cls-11" d="m119.38,49.34c1.63-2.24,5.1-6.75,7.01-9.31,0,0,7.17-9.49,7.17-9.49,0,0,2.28,1.96,2.28,1.96-4.65,4.75-12.1,12.45-16.45,16.84h0Z"/>
        <path class="cls-4" d="m100.13,39.08c1.86-6.93,5.49-19.6,7.59-27.2,0,0,4.68,1.76,4.68,1.76-3.46,7.13-9.07,18.96-12.26,25.43h0Z"/>
      </g>
      <polygon class="cls-1" points="120.09 77.88 109.88 63.59 97.56 75.06 86.87 63.59 75.32 74.04 63.86 62.79 52.97 74.53 41.36 63.91 33.6 77.7 41.82 67.85 53.08 78.77 63.92 66.98 75.26 78.19 86.72 67.83 97.32 79.14 109.59 67.95 120.09 77.88"/>
    </g>
  </g>
</svg>