
        <svg xmlns="http://www.w3.org/2000/svg" xmlns:xlink="http://www.w3.org/1999/xlink" version="1.1" width="3171.4285714285716" 
        height="2499.785150139037" viewBox="0 0 3171.4285714285716 2499.785150139037">
			<rect fill="#000000" width="3171.4285714285716" height="2499.785150139037"/>
			<g transform="scale(8.571428571428571) translate(10, 10)">
				<defs id="SvgjsDefs1107"><linearGradient id="SvgjsLinearGradient1116"><stop id="SvgjsStop1117" stop-color="#616161" offset="0"></stop><stop id="SvgjsStop1118" stop-color="#e6e7e8" offset="0.5"></stop><stop id="SvgjsStop1119" stop-color="#616161" offset="1"></stop></linearGradient></defs><g id="SvgjsG1108" featureKey="symbolFeature-0" transform="matrix(2.117362371445856,0,0,2.117362371445856,69.23502838633237,-42.81730617239341)" fill="url(#SvgjsLinearGradient1116)"><path xmlns="http://www.w3.org/2000/svg" d="M93.474,35.84c0.007-0.05,0.027-0.097,0.027-0.147c0-0.013-0.007-0.024-0.008-0.037c-0.002-0.061-0.021-0.117-0.035-0.177  c-0.016-0.069-0.029-0.136-0.06-0.201c-0.007-0.014-0.005-0.029-0.013-0.043c-0.024-0.046-0.065-0.076-0.096-0.117  c-0.031-0.042-0.049-0.091-0.087-0.129L82.588,24.526c-0.021-0.021-0.049-0.028-0.071-0.046c-0.018-0.015-0.032-0.033-0.052-0.046  c-0.015-0.011-0.024-0.026-0.04-0.036c-0.031-0.02-0.069-0.029-0.103-0.045c-0.047-0.022-0.091-0.042-0.14-0.057  c-0.027-0.008-0.05-0.026-0.078-0.032l-17.907-4.018c-0.071-0.016-0.146-0.024-0.219-0.024H36.023c-0.074,0-0.147,0.008-0.219,0.024  l-17.908,4.018c-0.005,0.001-0.008,0.004-0.013,0.005s-0.008,0-0.013,0c-0.021,0.005-0.037,0.021-0.058,0.028  c-0.047,0.015-0.089,0.034-0.134,0.056c-0.045,0.022-0.091,0.042-0.132,0.071c-0.029,0.021-0.053,0.044-0.079,0.067  c-0.017,0.015-0.039,0.02-0.055,0.036L6.798,34.989c-0.044,0.044-0.066,0.1-0.101,0.149c-0.032,0.044-0.074,0.079-0.098,0.129  c-0.004,0.008-0.003,0.018-0.006,0.026c-0.004,0.009-0.013,0.016-0.017,0.025c-0.007,0.017-0.004,0.035-0.01,0.051  c-0.017,0.047-0.02,0.096-0.029,0.145c-0.01,0.054-0.031,0.105-0.032,0.159c0,0.007-0.004,0.014-0.004,0.021  c0,0.007,0.004,0.014,0.004,0.021c0.001,0.051,0.02,0.101,0.028,0.152c0.011,0.061,0.012,0.124,0.034,0.182  c0.02,0.054,0.058,0.1,0.088,0.15c0.037,0.063,0.067,0.127,0.118,0.181c0.007,0.007,0.009,0.017,0.016,0.024  c0,0,0.001,0,0.001,0.001l42.499,43.077c0.001,0.001,0.002,0.001,0.002,0.002c0.002,0.002,0.004,0.004,0.006,0.006  c0,0,0,0.001,0.001,0.002c0.013,0.013,0.029,0.017,0.042,0.028s0.02,0.028,0.034,0.04c0.041,0.033,0.089,0.048,0.134,0.073  c0.028,0.017,0.05,0.039,0.08,0.052c0.01,0.005,0.019,0.013,0.029,0.018c0.003,0.001,0.005,0.002,0.007,0.003  c0.009,0.004,0.018,0.004,0.027,0.007c0.113,0.042,0.231,0.067,0.349,0.067c0,0,0,0,0,0l0,0h0c0,0,0,0,0,0  c0.116,0,0.232-0.025,0.344-0.066c0.01-0.004,0.021-0.003,0.032-0.008c0.002-0.001,0.005-0.002,0.007-0.003  c0.009-0.004,0.016-0.01,0.024-0.014c0.027-0.012,0.048-0.034,0.075-0.049c0.042-0.023,0.086-0.037,0.125-0.066  c0.018-0.013,0.024-0.032,0.041-0.047s0.038-0.02,0.054-0.035c0.001-0.001,0.001-0.002,0.001-0.002  c0.003-0.002,0.005-0.004,0.007-0.007c0,0,0.001,0,0.002-0.001l42.501-43.08c0.011-0.011,0.015-0.026,0.024-0.038  c0.05-0.055,0.082-0.117,0.118-0.18c0.029-0.052,0.063-0.099,0.082-0.154C93.46,35.969,93.464,35.905,93.474,35.84z M49,46.334  v29.494l-24.242-31.67L49,46.334z M24.773,42.151l11.204-11.42l11.648,13.471L24.773,42.151z M51,46.338l25.493-2.184L51,75.934  V46.338z M52.366,44.213l11.69-13.519l12.343,11.46L52.366,44.213z M90.825,35.453L80.078,41.12l2.459-13.835L90.825,35.453z   M78.072,40.978L66.051,29.816l14.588-3.272L78.072,40.978z M50,43.89L38.21,30.256h23.58L50,43.89z M23.114,40.986L19.482,26.57  l14.569,3.269L23.114,40.986z M17.573,27.178l3.516,13.953L9.214,35.417L17.573,27.178z M21.931,43.756L39.52,66.732L12.258,39.101  L21.931,43.756z M79.386,43.747l7.862-4.146L62.974,64.205L79.386,43.747z M36.134,22.221h27.734l13.449,3.018l-13.45,3.018H36.134  l-13.451-3.018L36.134,22.221z"></path></g><g id="SvgjsG1109" featureKey="nameFeature-0" transform="matrix(1.973498493608818,0,0,1.973498493608818,-1.1840792638018032,119.94982026077857)" fill="#aaabab"><path d="M24.44 13.64 l0 7.16 c0 0.44 -0.32 0.76 -0.76 0.76 c-0.4 0 -0.72 -0.32 -0.72 -0.76 l0 -0.16 c0 -2.76 -1.64 -5.52 -4.92 -5.52 l-0.68801 0 c-0.816 0 -1.432 0.584 -1.432 1.244 l0.008008 20.896 c0 0.668 0.608 1.26 1.432 1.26 l0.56 0 c0.44 0 0.76 0.32 0.76 0.72 c0 0.44 -0.32 0.76 -0.76 0.76 l-10.792 0 c-0.44 0 -0.76 -0.32 -0.76 -0.76 c0 -0.4 0.32 -0.72 0.76 -0.72 l0.56 0 c0.816 0 1.432 -0.572 1.432 -1.244 l-0.008008 -20.896 c0 -0.676 -0.608 -1.26 -1.432 -1.26 l-0.68 0 c-3.28 0 -4.92 2.76 -4.92 5.52 l0 0.16 c0 0.44 -0.32 0.76 -0.76 0.76 c-0.4 0 -0.72 -0.32 -0.72 -0.76 l0 -7.16 l23.84 0 z M49.11 32.08 c0.4 0 0.72004 0.32 0.72004 0.76 l0 7.16 l-21.392 0 c-0.44 0 -0.76 -0.32 -0.76 -0.76 c0 -0.4 0.32 -0.72 0.76 -0.72 l0.56 0 c0.816 0 1.432 -0.584 1.432 -1.244 l-0.008008 -20.896 c0 -0.668 -0.608 -1.26 -1.432 -1.26 l-0.56 0 c-0.44 0 -0.76 -0.32 -0.76 -0.72 c0 -0.44 0.32 -0.76 0.76 -0.76 l21.4 0 l0 7.16 c0 0.44 -0.32 0.76 -0.76 0.76 c-0.4 0 -0.72 -0.32 -0.72 -0.76 l0 -0.16 c0 -2.76 -1.64 -5.52 -4.92 -5.52 l-4.768 0 c-0.816 0 -1.432 0.572 -1.432 1.244 l0.0039844 9.156 l0.47602 0 c2.88 0 4.32 -1.04 4.32 -3.88 l0 -0.08 c0 -0.4 0.36 -0.76 0.76 -0.76 s0.76 0.36 0.76 0.76 l0 9.48 c0 0.4 -0.36 0.76 -0.76 0.76 s-0.76 -0.32 -0.76 -0.88 l0 -0.08 c0 -2.64 -1.36 -3.76 -4.32 -3.76 l-0.47602 0 l0.0039844 10.18 c0 0.676 0.608 1.26 1.432 1.26 l4.76 0 c3.28 0 4.92 -2.76 4.92 -5.52 l0 -0.16 c0 -0.44 0.32 -0.76 0.76 -0.76 z M70.46000000000001 13.2 c8.6 0 14.28 6 14.28 13.64 s-5.68 13.64 -14.28 13.64 c-8.64 0 -14.28 -6 -14.28 -13.64 s5.64 -13.64 14.28 -13.64 z M70.46000000000001 39 c5.24 0 6.76 -5.44 6.76 -12.16 s-1.52 -12.16 -6.76 -12.16 s-6.76 5.44 -6.76 12.16 s1.52 12.16 6.76 12.16 z M105.09 40.24 l-2.12 0 l-9.64 -23.468 l0 20.348 c0 0.72 0.56 1.4 1.44 1.4 l0.56 0 c0.44 0 0.76 0.32 0.76 0.76 c0 0.4 -0.32 0.72 -0.76 0.72 l-5.8 0 c-0.44 0 -0.76 -0.32 -0.76 -0.72 c0 -0.44 0.32 -0.76 0.76 -0.76 l0.56 0 c0.88 0 1.44 -0.68 1.44 -1.4 l0 -20.6 c0 -0.72 -0.56 -1.4 -1.44 -1.4 l-0.56 0 c-0.44 0 -0.76 -0.32 -0.76 -0.76 c0 -0.4 0.32 -0.72 0.76 -0.72 l9.72 0 l7.396 17.908 l7.044 -17.908 l9.312 0 c0.44 0 0.76 0.32 0.76 0.76 c0 0.4 -0.32 0.72 -0.76 0.72 l-0.56 0 c-0.88 0 -1.44 0.68 -1.44 1.4 l0.008008 20.6 c0 0.72 0.56 1.4 1.44 1.4 l0.56 0 c0.44 0 0.76 0.32 0.76 0.72 c0 0.44 -0.32 0.76 -0.76 0.76 l-10.8 0 c-0.44 0 -0.76 -0.32 -0.76 -0.76 c0 -0.4 0.32 -0.72 0.76 -0.72 l0.56 0 c0.86 0 1.416 -0.648 1.44 -1.352 l-0.008008 -20.22 z M138.76 38.52 c0.44 0 0.76 0.32 0.76 0.72 c0 0.44 -0.32 0.76 -0.76 0.76 l-10.792 0 c-0.44 0 -0.76 -0.32 -0.76 -0.76 c0 -0.4 0.32 -0.72 0.76 -0.72 l0.56 0 c0.816 0 1.432 -0.572 1.432 -1.244 l-0.008008 -20.896 c0 -0.676 -0.608 -1.26 -1.432 -1.26 l-0.56 0 c-0.44 0 -0.76 -0.32 -0.76 -0.72 c0 -0.44 0.32 -0.76 0.76 -0.76 l10.792 0 c0.44 0 0.76 0.32 0.76 0.76 c0 0.4 -0.32 0.72 -0.76 0.72 l-0.56 0 c-0.816 0 -1.432 0.584 -1.432 1.244 l0.008008 20.896 c0 0.668 0.608 1.26 1.432 1.26 l0.56 0 z M159.27 40.24 l-2.12 0 l-9.64 -23.468 l0 20.348 c0 0.72 0.56 1.4 1.44 1.4 l0.56 0 c0.44 0 0.76 0.32 0.76 0.76 c0 0.4 -0.32 0.72 -0.76 0.72 l-5.8 0 c-0.44 0 -0.76 -0.32 -0.76 -0.72 c0 -0.44 0.32 -0.76 0.76 -0.76 l0.56 0 c0.88 0 1.44 -0.68 1.44 -1.4 l0 -20.6 c0 -0.72 -0.56 -1.4 -1.44 -1.4 l-0.56 0 c-0.44 0 -0.76 -0.32 -0.76 -0.76 c0 -0.4 0.32 -0.72 0.76 -0.72 l9.72 0 l7.396 17.908 l7.044 -17.908 l9.312 0 c0.44 0 0.76 0.32 0.76 0.76 c0 0.4 -0.32 0.72 -0.76 0.72 l-0.56 0 c-0.88 0 -1.44 0.68 -1.44 1.4 l0.008008 20.6 c0 0.72 0.56 1.4 1.44 1.4 l0.56 0 c0.44 0 0.76 0.32 0.76 0.72 c0 0.44 -0.32 0.76 -0.76 0.76 l-10.8 0 c-0.44 0 -0.76 -0.32 -0.76 -0.76 c0 -0.4 0.32 -0.72 0.76 -0.72 l0.56 0 c0.86 0 1.416 -0.648 1.44 -1.352 l-0.008008 -20.22 z"></path></g><g id="SvgjsG1110" featureKey="nameFeature-1" transform="matrix(1.0550747783145187,0,0,1.0550747783145187,-0.8440502134634084,196.11521104738398)" fill="#aaabab"><path d="M21.92 32.08 c0.4 0 0.72 0.32 0.72 0.76 l0 7.16 l-21.072 0 c-0.44 0 -0.76 -0.32 -0.76 -0.76 c0 -0.4 0.32 -0.72 0.76 -0.72 l0.56 0 c0.816 0 1.432 -0.572 1.432 -1.244 l-0.008008 -20.896 c0 -0.676 -0.608 -1.26 -1.432 -1.26 l-0.56 0 c-0.44 0 -0.76 -0.32 -0.76 -0.72 c0 -0.44 0.32 -0.76 0.76 -0.76 l10.792 0 c0.44 0 0.76 0.32 0.76 0.76 c0 0.4 -0.32 0.72 -0.76 0.72 l-0.56 0 c-0.816 0 -1.432 0.584 -1.432 1.244 l0.008008 20.896 c0 0.668 0.608 1.26 1.432 1.26 l4.44 0 c3.16 0 4.92 -2.8 4.92 -5.24 l0 -0.44 c0 -0.44 0.32 -0.76 0.76 -0.76 z M53.43000000000001 38.52 c0.4 0 0.76 0.32 0.76 0.76 c0 0.4 -0.36 0.72 -0.76 0.72 l-12.56 0 c-0.4 0 -0.76 -0.32 -0.76 -0.72 c0 -0.44 0.36 -0.76 0.76 -0.76 l1.44 0 c0.82 0 1.312 -0.628 0.96 -1.4 l-2.164 -4.88 l-9.016 0 l-2.02 4.88 c-0.28 0.736 0.16398 1.4 0.96 1.4 l1.44 0 c0.4 0 0.76 0.32 0.76 0.76 c0 0.4 -0.36 0.72 -0.76 0.72 l-7 0 c-0.4 0 -0.76 -0.32 -0.76 -0.72 c0 -0.44 0.36 -0.76 0.76 -0.76 l0.96 0 c1.04 0 1.48 -0.52 1.84 -1.4 l9.84 -23.72 l2.12 0 l10.36 23.76 c0.32 0.72 0.84 1.36 1.96 1.36 l0.88 0 z M32.686 30.8 l7.784 0 l-4.024 -9.076 z M74.076 26.112000000000002 c5.448 0.444 8.864 2.24 8.864 6.528 c0 4.8 -4 7.36 -11.44 7.36 l-13.832 0 c-0.44 0 -0.76 -0.32 -0.76 -0.76 c0 -0.4 0.32 -0.72 0.76 -0.72 l0.56 0 c0.88 0 1.44 -0.68 1.44 -1.4 l-0.008008 -20.6 c0 -0.72 -0.56 -1.4 -1.44 -1.4 l-0.56 0 c-0.44 0 -0.76 -0.32 -0.76 -0.72 c0 -0.44 0.32 -0.76 0.76 -0.76 l12.92 0 c5.96 0 10.8 1.4 10.8 5.92 c0 3.188 -2.26 5.768 -7.304 6.552 z M66.492 16.52 l0 9.2 l1.688 0 c3.2 0 5.72 -1.64 5.72 -5.52 c0 -3.052 -1.768 -5.044 -5.968 -5.08 l-0.08 0 c-0.812 0 -1.36 0.712 -1.36 1.4 z M68.74000000000001 38.52 c3.76 0 6.68 -2.08 6.68 -5.76 c0 -3.52 -2.64 -5.48 -6.68 -5.48 l-2.24 0 l0 9.84 c0 0.72 0.56 1.4 1.44 1.4 l0.8 0 z M110.24000000000001 13.64 c9.92 0 16.08 3.32 16.08 13 c0 7.6 -5.44 13.36 -16.08 13.36 l-11.152 0 c-0.44 0 -0.76 -0.32 -0.76 -0.76 c0 -0.4 0.32 -0.72 0.76 -0.72 l0.56 0 c0.816 0 1.432 -0.584 1.432 -1.244 l-0.008008 -20.896 c0 -0.668 -0.608 -1.26 -1.432 -1.26 l-0.56 0 c-0.44 0 -0.76 -0.32 -0.76 -0.72 c0 -0.44 0.32 -0.76 0.76 -0.76 l11.16 0 z M110.24000000000001 38.52 c5.08 0 8.56 -3.6 8.56 -11.88 c0 -8.36 -3.04 -11.52 -8.56 -11.52 l-0.92801 0 c-0.816 0 -1.432 0.584 -1.432 1.244 l0.008008 20.896 c0 0.668 0.608 1.26 1.432 1.26 l0.92 0 z M141.91000000000003 38.52 c0.44 0 0.76 0.32 0.76 0.72 c0 0.44 -0.32 0.76 -0.76 0.76 l-10.792 0 c-0.44 0 -0.76 -0.32 -0.76 -0.76 c0 -0.4 0.32 -0.72 0.76 -0.72 l0.56 0 c0.816 0 1.432 -0.572 1.432 -1.244 l-0.008008 -20.896 c0 -0.676 -0.608 -1.26 -1.432 -1.26 l-0.56 0 c-0.44 0 -0.76 -0.32 -0.76 -0.72 c0 -0.44 0.32 -0.76 0.76 -0.76 l10.792 0 c0.44 0 0.76 0.32 0.76 0.76 c0 0.4 -0.32 0.72 -0.76 0.72 l-0.56 0 c-0.816 0 -1.432 0.584 -1.432 1.244 l0.008008 20.896 c0 0.668 0.608 1.26 1.432 1.26 l0.56 0 z M174.10000000000002 38.52 c0.4 0 0.76 0.32 0.76 0.76 c0 0.4 -0.36 0.72 -0.76 0.72 l-12.56 0 c-0.4 0 -0.76 -0.32 -0.76 -0.72 c0 -0.44 0.36 -0.76 0.76 -0.76 l1.44 0 c0.82 0 1.312 -0.628 0.96 -1.4 l-2.164 -4.88 l-9.016 0 l-2.02 4.88 c-0.28 0.736 0.16398 1.4 0.96 1.4 l1.44 0 c0.4 0 0.76 0.32 0.76 0.76 c0 0.4 -0.36 0.72 -0.76 0.72 l-7 0 c-0.4 0 -0.76 -0.32 -0.76 -0.72 c0 -0.44 0.36 -0.76 0.76 -0.76 l0.96 0 c1.04 0 1.48 -0.52 1.84 -1.4 l9.84 -23.72 l2.12 0 l10.36 23.76 c0.32 0.72 0.84 1.36 1.96 1.36 l0.88 0 z M153.35600000000002 30.8 l7.784 0 l-4.024 -9.076 z M193.89000000000001 40.24 l-2.12 0 l-9.64 -23.468 l0 20.348 c0 0.72 0.56 1.4 1.44 1.4 l0.56 0 c0.44 0 0.76 0.32 0.76 0.76 c0 0.4 -0.32 0.72 -0.76 0.72 l-5.8 0 c-0.44 0 -0.76 -0.32 -0.76 -0.72 c0 -0.44 0.32 -0.76 0.76 -0.76 l0.56 0 c0.88 0 1.44 -0.68 1.44 -1.4 l0 -20.6 c0 -0.72 -0.56 -1.4 -1.44 -1.4 l-0.56 0 c-0.44 0 -0.76 -0.32 -0.76 -0.76 c0 -0.4 0.32 -0.72 0.76 -0.72 l9.72 0 l7.396 17.908 l7.044 -17.908 l9.312 0 c0.44 0 0.76 0.32 0.76 0.76 c0 0.4 -0.32 0.72 -0.76 0.72 l-0.56 0 c-0.88 0 -1.44 0.68 -1.44 1.4 l0.008008 20.6 c0 0.72 0.56 1.4 1.44 1.4 l0.56 0 c0.44 0 0.76 0.32 0.76 0.72 c0 0.44 -0.32 0.76 -0.76 0.76 l-10.8 0 c-0.44 0 -0.76 -0.32 -0.76 -0.76 c0 -0.4 0.32 -0.72 0.76 -0.72 l0.56 0 c0.86 0 1.416 -0.648 1.44 -1.352 l-0.008008 -20.22 z M230.88000000000002 13.2 c8.6 0 14.28 6 14.28 13.64 s-5.68 13.64 -14.28 13.64 c-8.64 0 -14.28 -6 -14.28 -13.64 s5.64 -13.64 14.28 -13.64 z M230.88000000000002 39 c5.24 0 6.76 -5.44 6.76 -12.16 s-1.52 -12.16 -6.76 -12.16 s-6.76 5.44 -6.76 12.16 s1.52 12.16 6.76 12.16 z M274.03000000000003 13.64 c0.44 0 0.76 0.32 0.76 0.72 c0 0.44 -0.32 0.76 -0.76 0.76 l-0.56 0 c-0.88 0 -1.44 0.68 -1.44 1.4 l0 23.48 l-3.36 0 l-14.92 -19.3 l0 16.42 c0 0.72 0.56 1.4 1.44 1.4 l0.56 0 c0.44 0 0.76 0.32 0.76 0.76 c0 0.4 -0.32 0.72 -0.76 0.72 l-5.8 0 c-0.44 0 -0.76 -0.32 -0.76 -0.72 c0 -0.44 0.32 -0.76 0.76 -0.76 l0.56 0 c0.88 0 1.44 -0.68 1.44 -1.4 l0 -20.6 c0 -0.72 -0.56 -1.4 -1.44 -1.4 l-0.56 0 c-0.44 0 -0.76 -0.32 -0.76 -0.76 c0 -0.4 0.32 -0.72 0.76 -0.72 l6.36 0 l13.92 17.888 l0 -15.008 c0 -0.72 -0.56 -1.4 -1.44 -1.4 l-0.56 0 c-0.44 0 -0.76 -0.32 -0.76 -0.76 c0 -0.4 0.32 -0.72 0.76 -0.72 l5.8 0 z M290.14000000000004 13.64 c9.92 0 16.08 3.32 16.08 13 c0 7.6 -5.44 13.36 -16.08 13.36 l-11.152 0 c-0.44 0 -0.76 -0.32 -0.76 -0.76 c0 -0.4 0.32 -0.72 0.76 -0.72 l0.56 0 c0.816 0 1.432 -0.584 1.432 -1.244 l-0.008008 -20.896 c0 -0.668 -0.608 -1.26 -1.432 -1.26 l-0.56 0 c-0.44 0 -0.76 -0.32 -0.76 -0.72 c0 -0.44 0.32 -0.76 0.76 -0.76 l11.16 0 z M290.14000000000004 38.52 c5.08 0 8.56 -3.6 8.56 -11.88 c0 -8.36 -3.04 -11.52 -8.56 -11.52 l-0.92801 0 c-0.816 0 -1.432 0.584 -1.432 1.244 l0.008008 20.896 c0 0.668 0.608 1.26 1.432 1.26 l0.92 0 z M320.85 40.48 c-5.68 0 -9.8 -3.28 -9.8 -7.16 c0 -2.08 1.48 -3.08 2.92 -3.08 c1.28 0 2.56 0.84 2.56 2.48 c0 1.52 -1.4 2.24 -1.4 3.24 c0 1.76 2.72 3 5.04 3 c2.88 0 6.04 -1.32 6.04 -4.76 c0 -5.72 -14.48 -3.08 -14.48 -12.92 c0 -5.92 5.16 -8.12 10.72 -8.12 c4.88 0 9.44 2.76 9.44 6.48 c0 2.2 -1.48 3.24 -2.88 3.24 c-1.32 0 -2.6 -0.88 -2.6 -2.52 c0 -1.68 1.36 -2.08 1.36 -3.08 c0 -1.64 -2.72 -2.6 -5 -2.6 c-3.04 0 -5.72 1.24 -5.72 4.44 c0 5.48 15.48 3.44 15.48 13.08 c0 4.44 -4.36 8.28 -11.68 8.28 z"></path></g><g id="SvgjsG1111" featureKey="sloganFeature-0" transform="matrix(0.8626267080286927,0,0,0.8626267080286927,34.05111070343493,254.10028003514424)" fill="#aaabab"><path d="M9 20.32 c-3.36 0 -7.9 -1.96 -7.9 -7.06 c0 -3.46 2.12 -7.58 7.72 -7.58 c2.32 0 4.32 0.72 4.08 1.42 l-0.26 0.78 c-0.72 2.14 -1.5 -0.6 -5.06 -0.6 c-2.86 0 -4.26 1.86 -4.26 4.74 c0 4.5 3.42 6.38 6.16 6.38 c0.36 0 2.18 -0.28 3.22 -0.94 c0.16 -0.1 0.58 0.36 0.46 0.54 c-0.86 1.26 -3.54 2.32 -4.16 2.32 z M24.997500000000002 20.32 c-2.82 0 -5.98 -1.5 -5.98 -5.56 l0 -6.28 c0 -1.26 -0.64 -1.68 -1.62 -1.8 c-0.16 -0.02 -0.04 -0.68 0.12 -0.68 l5.46 0 c0.16 0 0.28 0.66 0.12 0.68 c-0.8 0.1 -1.6 0.4 -1.6 1.8 l0 6.38 c0 2.8 1.62 4.1 3.74 4.1 c2.18 0 3.92 -1.3 3.92 -4.1 l0 -6.38 c0 -1.3 -0.74 -1.66 -1.72 -1.8 c-0.14 -0.02 -0.04 -0.68 0.12 -0.68 l4.5 0 c0.14 0 0.26 0.66 0.1 0.68 c-0.8 0.1 -1.6 0.4 -1.6 1.8 l0 6.26 c0 3.68 -2.38 5.58 -5.56 5.58 z M36.075 20.04 c-0.2 0.02 -0.28 -0.68 -0.12 -0.72 c1.16 -0.3 2.06 -0.48 2.06 -1.96 l0 -8.88 c0 -1.4 -0.82 -1.68 -1.68 -1.8 c-0.16 -0.02 -0.04 -0.68 0.1 -0.68 l5.52 0 c0.14 0 0.24 0.66 0.1 0.68 c-0.84 0.1 -1.64 0.4 -1.64 1.8 l0 8.88 c0 1.14 0.48 1.56 2.14 1.56 c3.02 0 4.22 -1.38 4.7 -2.14 c0.14 -0.22 0.68 -0.12 0.68 0.22 c0 1.02 -0.86 3.04 -2.12 3.04 c-1.12 -0.06 -2.22 -0.12 -3.9 -0.12 c-1.84 0 -4.02 -0.06 -5.84 0.12 z M54.7525 20 c-0.18 0 -0.3 -0.64 -0.14 -0.66 c1.38 -0.18 2.3 -0.46 2.3 -1.54 l0 -9.86 c0 -0.5 -0.18 -0.66 -0.66 -0.66 l-0.54 0 c-1.9 0 -2.96 0.44 -3.36 1.3 c-0.18 0.4 -0.86 0.34 -0.78 0 c0.18 -0.72 0.34 -1.34 0.46 -2.4 c0.04 -0.38 0.26 -0.36 0.62 -0.32 c0.92 0.1 1.76 0.14 5.56 0.14 s5.14 -0.04 6.1 -0.14 c0.36 -0.04 0.7 -0.06 0.58 0.32 c-0.3 0.94 -0.5 1.68 -0.62 2.4 c-0.06 0.34 -0.6 0.36 -0.68 0 c-0.2 -0.84 -1.08 -1.3 -2.8 -1.3 l-0.62 0 c-0.48 0 -0.78 0.16 -0.78 0.66 l0 9.86 c0 1.08 0.92 1.36 2.3 1.54 c0.16 0.02 0.04 0.66 -0.14 0.66 l-6.8 0 z M68.94999999999999 20 c-0.16 0 -0.28 -0.66 -0.12 -0.68 c1.02 -0.14 1.66 -0.54 1.66 -1.8 l0 -9.04 c0 -1.26 -0.64 -1.66 -1.66 -1.8 c-0.16 -0.02 -0.04 -0.68 0.12 -0.68 l5.48 0 c0.16 0 0.28 0.66 0.12 0.68 c-0.86 0.12 -1.66 0.4 -1.66 1.8 l0 9.04 c0 1.4 0.8 1.68 1.66 1.8 c0.16 0.02 0.04 0.68 -0.12 0.68 l-5.48 0 z M93.36749999999999 6 c0.22 0 0.3 0.64 0.04 0.68 c-0.8 0.12 -1.32 0.44 -2.04 2.12 l-3.38 7.86 c-0.7 1.62 -1.02 2.54 -1.02 3.34 c0 0.12 -1.38 0.44 -1.44 0.3 l-4.86 -11.48 c-0.72 -1.72 -1.26 -2.02 -2.04 -2.14 c-0.26 -0.04 -0.2 -0.68 0.06 -0.68 l5.26 0 c0.26 0 0.3 0.64 0.06 0.68 c-0.74 0.12 -1.48 0.44 -0.78 2.12 l3.38 8.12 l3.38 -8.12 c0.72 -1.72 -0.08 -1.98 -1 -2.12 c-0.26 -0.04 -0.2 -0.68 0.06 -0.68 l4.32 0 z M112.04499999999999 19.32 c0.28 0.04 0.2 0.68 -0.04 0.68 l-5.28 0 c-0.26 0 -0.28 -0.64 -0.06 -0.68 c0.74 -0.14 1.54 -0.4 0.8 -2.12 l-0.22 -0.5 c-0.2 -0.48 -0.54 -0.52 -1.14 -0.52 l-4.08 0 c-0.6 0 -0.94 0.04 -1.14 0.52 l-0.2 0.5 c-0.7 1.72 0.06 1.98 1.02 2.12 c0.26 0.04 0.2 0.68 -0.06 0.68 l-4.32 0 c-0.24 0 -0.3 -0.64 -0.06 -0.68 c0.82 -0.14 1.3 -0.42 2.04 -2.12 l3.38 -7.76 c0.78 -1.76 1.02 -2.58 1.02 -3.34 c0 -0.12 1.4 -0.44 1.46 -0.3 l4.88 11.38 c0.72 1.7 1.2 2.02 2 2.14 z M105.96499999999999 15.059999999999999 c0.28 0 0.58 -0.04 0.46 -0.32 l-2.34 -5.6 l-2.36 5.6 c-0.12 0.28 0.18 0.32 0.46 0.32 l3.78 0 z M118.9425 20 c-0.18 0 -0.3 -0.64 -0.14 -0.66 c1.38 -0.18 2.3 -0.46 2.3 -1.54 l0 -9.86 c0 -0.5 -0.18 -0.66 -0.66 -0.66 l-0.54 0 c-1.9 0 -2.96 0.44 -3.36 1.3 c-0.18 0.4 -0.86 0.34 -0.78 0 c0.18 -0.72 0.34 -1.34 0.46 -2.4 c0.04 -0.38 0.26 -0.36 0.62 -0.32 c0.92 0.1 1.76 0.14 5.56 0.14 s5.14 -0.04 6.1 -0.14 c0.36 -0.04 0.7 -0.06 0.58 0.32 c-0.3 0.94 -0.5 1.68 -0.62 2.4 c-0.06 0.34 -0.6 0.36 -0.68 0 c-0.2 -0.84 -1.08 -1.3 -2.8 -1.3 l-0.62 0 c-0.48 0 -0.78 0.16 -0.78 0.66 l0 9.86 c0 1.08 0.92 1.36 2.3 1.54 c0.16 0.02 0.04 0.66 -0.14 0.66 l-6.8 0 z M132.83999999999997 20.04 c-0.2 0.02 -0.28 -0.68 -0.12 -0.72 c1.16 -0.3 2.06 -0.48 2.06 -1.96 l0 -8.88 c0 -1.28 -0.82 -1.62 -1.68 -1.84 c-0.16 -0.04 -0.06 -0.7 0.1 -0.68 c1.46 0.16 3.98 0.12 5.2 0.12 c1.82 0 3.14 -0.08 4.78 -0.12 c0.48 0 0.48 0.32 0.38 0.78 l-0.48 1.9 c-0.06 0.28 -0.56 0.28 -0.64 0 c-0.3 -0.98 -0.9 -1.54 -3.4 -1.54 c-1.4 0 -1.86 0.36 -1.86 1.4 l0 3.26 c0 0.52 0.26 0.62 0.66 0.62 l0.44 0 c1.62 0 3.02 -0.16 3.84 -0.9 c0.2 -0.18 0.64 -0.14 0.46 0.26 l-1.14 2.52 c-0.16 0.36 -0.46 0.32 -0.68 0.02 c-0.46 -0.64 -1.48 -0.9 -2.64 -0.9 l-0.28 0 c-0.4 0 -0.66 0.1 -0.66 0.62 l0 3.36 c0 1.14 0.48 1.56 2.14 1.56 c3.02 0 4.22 -1.38 4.7 -2.14 c0.14 -0.22 0.68 -0.12 0.68 0.22 c0 1.02 -0.86 3.04 -2.12 3.04 c-1.12 -0.06 -2.22 -0.12 -3.9 -0.12 c-1.84 0 -4.02 -0.06 -5.84 0.12 z M148.6375 20.04 c-0.2 0.02 -0.28 -0.68 -0.12 -0.72 c1.16 -0.3 2.06 -0.48 2.06 -1.96 l0 -8.88 c0 -1.28 -0.82 -1.62 -1.68 -1.84 c-0.16 -0.04 -0.06 -0.7 0.1 -0.68 c0.82 0.1 1.66 0.12 2.5 0.12 c1.56 0 2.96 -0.12 3.98 -0.12 c4.84 0 7.46 2.88 7.46 6.74 c0 3.84 -2.62 7.34 -7.48 7.34 c-0.96 0 -2.2 -0.12 -3.68 -0.12 c-1.24 0 -2.22 0.02 -3.14 0.12 z M155.6575 18.98 c3.26 0 4.88 -1.76 4.88 -5.14 c0 -3.82 -2.08 -6.82 -5.68 -6.82 c-1.42 0 -1.88 0.44 -1.88 1.46 l0 8.88 c0 1.08 0.74 1.62 2.68 1.62 z M182.0525 12.379999999999999 c1.86 0 3.66 1.34 3.66 3.58 c0 2.48 -2.26 4.08 -5.6 4.08 c-0.96 0 -2.08 -0.12 -3.56 -0.12 c-1.26 0 -2.22 0.02 -3.14 0.12 c-0.18 0.02 -0.28 -0.68 -0.12 -0.72 c1.16 -0.3 2.06 -0.48 2.06 -1.96 l0 -8.88 c0 -1.28 -0.82 -1.62 -1.68 -1.84 c-0.16 -0.04 -0.06 -0.7 0.1 -0.68 c0.82 0.1 1.78 0.12 2.42 0.12 c1.6 0 2.78 -0.12 3.66 -0.12 c2.58 0 4.7 1.08 4.72 3.28 c0.02 1.62 -1.12 2.74 -2.52 3.02 l0 0.12 z M179.1725 7 c-1.06 0 -1.42 0.36 -1.42 1.48 l0 3.56 l2.06 0 c1.44 0 2.28 -0.72 2.28 -2.26 c0 -1.9 -1.28 -2.78 -2.92 -2.78 z M180.0525 19 c1.76 0 3.08 -0.52 3.08 -2.6 c0 -2.2 -1.46 -3.36 -3.32 -3.36 l-2.06 0 l0 4.32 c0 1.1 0.56 1.64 2.3 1.64 z M204.75 19.5 c0.16 0 0.12 0.54 0 0.58 c-1.26 0.42 -3 0.36 -4.2 -1.18 l-3.08 -3.96 c-0.86 -1.12 -1.88 -1.28 -3.28 -1.3 l0 3.88 c0 1.4 0.96 1.64 2.24 1.8 c0.14 0.02 0.04 0.68 -0.12 0.68 l-6.06 0 c-0.16 0 -0.28 -0.66 -0.12 -0.68 c1.02 -0.14 1.66 -0.54 1.66 -1.8 l0 -8.92 c0 -1.32 -0.7 -1.7 -1.66 -1.96 c-0.16 -0.04 -0.06 -0.7 0.12 -0.68 c0.78 0.1 1.66 0.12 2.3 0.12 c1.48 0 2.86 -0.12 3.82 -0.12 c3.02 0 5.04 1.24 5.04 3.7 c0 2.32 -1.88 3.46 -3.56 3.56 l0 0.1 c0.8 0 1.38 0.34 2.26 1.44 l2.98 3.74 c0.62 0.78 1.22 1 1.66 1 z M194.77 12.719999999999999 c2.98 0 4.12 -0.52 4.12 -2.52 c0 -2.14 -1.36 -3.2 -3.14 -3.2 c-1.18 0 -1.56 0.48 -1.56 1.6 l0 4.12 l0.58 0 z M208.5875 20 c-0.16 0 -0.28 -0.66 -0.12 -0.68 c1.02 -0.14 1.66 -0.54 1.66 -1.8 l0 -9.04 c0 -1.26 -0.64 -1.66 -1.66 -1.8 c-0.16 -0.02 -0.04 -0.68 0.12 -0.68 l5.48 0 c0.16 0 0.28 0.66 0.12 0.68 c-0.86 0.12 -1.66 0.4 -1.66 1.8 l0 9.04 c0 1.4 0.8 1.68 1.66 1.8 c0.16 0.02 0.04 0.68 -0.12 0.68 l-5.48 0 z M218.20499999999998 20.04 c-0.2 0.02 -0.28 -0.68 -0.12 -0.72 c1.16 -0.3 2.06 -0.48 2.06 -1.96 l0 -8.88 c0 -1.4 -0.82 -1.68 -1.68 -1.8 c-0.16 -0.02 -0.04 -0.68 0.1 -0.68 l5.52 0 c0.14 0 0.24 0.66 0.1 0.68 c-0.84 0.1 -1.64 0.4 -1.64 1.8 l0 8.88 c0 1.14 0.48 1.56 2.14 1.56 c3.02 0 4.22 -1.38 4.7 -2.14 c0.14 -0.22 0.68 -0.12 0.68 0.22 c0 1.02 -0.86 3.04 -2.12 3.04 c-1.12 -0.06 -2.22 -0.12 -3.9 -0.12 c-1.84 0 -4.02 -0.06 -5.84 0.12 z M233.80249999999998 20.04 c-0.2 0.02 -0.28 -0.68 -0.12 -0.72 c1.16 -0.3 2.06 -0.48 2.06 -1.96 l0 -8.88 c0 -1.4 -0.82 -1.68 -1.68 -1.8 c-0.16 -0.02 -0.04 -0.68 0.1 -0.68 l5.52 0 c0.14 0 0.24 0.66 0.1 0.68 c-0.84 0.1 -1.64 0.4 -1.64 1.8 l0 8.88 c0 1.14 0.48 1.56 2.14 1.56 c3.02 0 4.22 -1.38 4.7 -2.14 c0.14 -0.22 0.68 -0.12 0.68 0.22 c0 1.02 -0.86 3.04 -2.12 3.04 c-1.12 -0.06 -2.22 -0.12 -3.9 -0.12 c-1.84 0 -4.02 -0.06 -5.84 0.12 z M249.7 20 c-0.16 0 -0.28 -0.66 -0.12 -0.68 c1.02 -0.14 1.66 -0.54 1.66 -1.8 l0 -9.04 c0 -1.26 -0.64 -1.66 -1.66 -1.8 c-0.16 -0.02 -0.04 -0.68 0.12 -0.68 l5.48 0 c0.16 0 0.28 0.66 0.12 0.68 c-0.86 0.12 -1.66 0.4 -1.66 1.8 l0 9.04 c0 1.4 0.8 1.68 1.66 1.8 c0.16 0.02 0.04 0.68 -0.12 0.68 l-5.48 0 z M274.0575 19.32 c0.28 0.04 0.2 0.68 -0.04 0.68 l-5.28 0 c-0.26 0 -0.28 -0.64 -0.06 -0.68 c0.74 -0.14 1.54 -0.4 0.8 -2.12 l-0.22 -0.5 c-0.2 -0.48 -0.54 -0.52 -1.14 -0.52 l-4.08 0 c-0.6 0 -0.94 0.04 -1.14 0.52 l-0.2 0.5 c-0.7 1.72 0.06 1.98 1.02 2.12 c0.26 0.04 0.2 0.68 -0.06 0.68 l-4.32 0 c-0.24 0 -0.3 -0.64 -0.06 -0.68 c0.82 -0.14 1.3 -0.42 2.04 -2.12 l3.38 -7.76 c0.78 -1.76 1.02 -2.58 1.02 -3.34 c0 -0.12 1.4 -0.44 1.46 -0.3 l4.88 11.38 c0.72 1.7 1.2 2.02 2 2.14 z M267.9775 15.059999999999999 c0.28 0 0.58 -0.04 0.46 -0.32 l-2.34 -5.6 l-2.36 5.6 c-0.12 0.28 0.18 0.32 0.46 0.32 l3.78 0 z M291.235 20.2 c-0.34 0 -0.52 -0.14 -0.74 -0.38 l-9.52 -9.96 l0 7.6 c0 1.36 0.8 1.58 1.94 1.86 c0.16 0.04 0.08 0.68 -0.12 0.68 l-4.74 0 c-0.16 0 -0.28 -0.62 -0.1 -0.68 c0.84 -0.28 1.64 -0.44 1.64 -1.86 l0 -7.76 c0 -1.42 -0.22 -2.1 -0.74 -2.8 c-0.18 -0.24 -0.36 -0.4 -0.36 -0.46 c0 -0.18 0.12 -0.44 0.4 -0.44 l1.48 0 c0.2 0 0.34 0.02 0.48 0.18 l9.32 9.86 l0 -7.52 c0 -1.42 -0.9 -1.58 -1.94 -1.84 c-0.16 -0.04 -0.08 -0.68 0.12 -0.68 l4.74 0 c0.16 0 0.26 0.64 0.1 0.68 c-0.88 0.26 -1.64 0.42 -1.64 1.84 l0 7.78 c0 1.32 0.04 2.78 0.24 3.52 c0.08 0.3 -0.24 0.38 -0.56 0.38 z M305.5125 20.32 c-3.36 0 -7.9 -1.96 -7.9 -7.06 c0 -3.46 2.12 -7.58 7.72 -7.58 c2.32 0 4.32 0.72 4.08 1.42 l-0.26 0.78 c-0.72 2.14 -1.5 -0.6 -5.06 -0.6 c-2.86 0 -4.26 1.86 -4.26 4.74 c0 4.5 3.42 6.38 6.16 6.38 c0.36 0 2.18 -0.28 3.22 -0.94 c0.16 -0.1 0.58 0.36 0.46 0.54 c-0.86 1.26 -3.54 2.32 -4.16 2.32 z M313.83 20.04 c-0.2 0.02 -0.28 -0.68 -0.12 -0.72 c1.16 -0.3 2.06 -0.48 2.06 -1.96 l0 -8.88 c0 -1.28 -0.82 -1.62 -1.68 -1.84 c-0.16 -0.04 -0.06 -0.7 0.1 -0.68 c1.46 0.16 3.98 0.12 5.2 0.12 c1.82 0 3.14 -0.08 4.78 -0.12 c0.48 0 0.48 0.32 0.38 0.78 l-0.48 1.9 c-0.06 0.28 -0.56 0.28 -0.64 0 c-0.3 -0.98 -0.9 -1.54 -3.4 -1.54 c-1.4 0 -1.86 0.36 -1.86 1.4 l0 3.26 c0 0.52 0.26 0.62 0.66 0.62 l0.44 0 c1.62 0 3.02 -0.16 3.84 -0.9 c0.2 -0.18 0.64 -0.14 0.46 0.26 l-1.14 2.52 c-0.16 0.36 -0.46 0.32 -0.68 0.02 c-0.46 -0.64 -1.48 -0.9 -2.64 -0.9 l-0.28 0 c-0.4 0 -0.66 0.1 -0.66 0.62 l0 3.36 c0 1.14 0.48 1.56 2.14 1.56 c3.02 0 4.22 -1.38 4.7 -2.14 c0.14 -0.22 0.68 -0.12 0.68 0.22 c0 1.02 -0.86 3.04 -2.12 3.04 c-1.12 -0.06 -2.22 -0.12 -3.9 -0.12 c-1.84 0 -4.02 -0.06 -5.84 0.12 z"></path></g>
			</g>
		</svg>
	