<?xml version="1.0" encoding="UTF-8"?>
<svg id="Layer_2" data-name="Layer 2" xmlns="http://www.w3.org/2000/svg" viewBox="0 0 110.89 200.7">
  <defs>
    <style>
      .cls-1 {
        fill: #e83a3a;
      }

      .cls-1, .cls-2 {
        stroke-width: 0px;
      }

      .cls-2 {
        fill: #2b2b2b;
      }
    </style>
  </defs>
  <g id="Layer_2-2" data-name="Layer 2">
    <path class="cls-2" d="M107.89,31.58h-31.19V3c0-.8-1.35-3-3-3H3C1.34,0,0,1.34,0,3v150.25c0,1.66,1.34,3,3,3h33.95v-6H6V6h64.7v28.58c0,1.66,1.34,3,3,3h31.19v112.67h-30.96v6h33.96c1.65,0,3-1.34,3-3V34.58c0-.8-1.35-3-3-3ZM42.18,156.25h26.52v-6h-26.52v6Z"/>
    <path class="cls-2" d="M107.59,37.58h-34.19l-3-3V3l5.04-2.2,34.19,31.58-2.04,5.2ZM76.4,31.58h23.52l-23.52-21.73v21.73Z"/>
    <g>
      <path class="cls-1" d="M20.89,97.69v12.16h-7.11v-34.52h13.47c2.59,0,4.87.47,6.84,1.42,1.97.95,3.48,2.3,4.54,4.04,1.06,1.75,1.59,3.73,1.59,5.96,0,3.38-1.16,6.05-3.47,8-2.32,1.95-5.52,2.93-9.61,2.93h-6.24ZM20.89,91.93h6.35c1.88,0,3.32-.44,4.3-1.33.99-.89,1.48-2.15,1.48-3.79s-.5-3.06-1.49-4.1c-1-1.04-2.37-1.58-4.13-1.61h-6.52v10.84Z"/>
      <path class="cls-1" d="M45.1,109.86v-34.52h10.62c3.03,0,5.75.68,8.14,2.05,2.4,1.37,4.26,3.31,5.61,5.83,1.34,2.52,2.02,5.39,2.02,8.6v1.59c0,3.21-.66,6.06-1.98,8.56s-3.18,4.43-5.58,5.81c-2.4,1.38-5.11,2.07-8.13,2.09h-10.69ZM52.22,81.1v23.05h3.44c2.78,0,4.91-.91,6.38-2.73,1.47-1.82,2.22-4.42,2.25-7.8v-1.83c0-3.51-.73-6.17-2.18-7.98-1.45-1.81-3.58-2.71-6.38-2.71h-3.51Z"/>
      <path class="cls-1" d="M97.43,95.75h-13.66v14.11h-7.11v-34.52h22.48v5.76h-15.36v8.92h13.66v5.74Z"/>
    </g>
    <path class="cls-1" d="M81.3,175.01l-25.59,25.59c-.15.14-.38.14-.53,0l-25.59-25.59c-.24-.24-.07-.65.27-.65h12.32v-57.04h26.52v57.04h12.33c.34,0,.51.41.27.65Z"/>
  </g>
</svg>