<?xml version="1.0" encoding="UTF-8"?>
<svg id="Layer_2" data-name="Layer 2" xmlns="http://www.w3.org/2000/svg" viewBox="0 0 110.89 203.56">
  <defs>
    <style>
      .cls-1 {
        fill: #2b2b2b;
      }

      .cls-1, .cls-2, .cls-3 {
        stroke-width: 0px;
      }

      .cls-2 {
        fill: #292929;
      }

      .cls-3 {
        fill: #33cc6d;
      }
    </style>
  </defs>
  <g id="Layer_2-2" data-name="Layer 2">
    <path class="cls-2" d="M107.6,37.59h-34.19l-3-3V3.01l5.04-2.2,34.19,31.58-2.04,5.2ZM76.41,31.59h23.52l-23.52-21.73v21.73Z"/>
    <g>
      <path class="cls-3" d="M38.29,101.15c-.27,3.71-1.64,6.64-4.11,8.77-2.47,2.13-5.73,3.2-9.78,3.2-4.43,0-7.91-1.49-10.44-4.47s-3.81-7.07-3.81-12.27v-2.11c0-3.32.58-6.24,1.75-8.77,1.17-2.53,2.84-4.47,5.01-5.82,2.17-1.35,4.7-2.03,7.58-2.03,3.98,0,7.19,1.07,9.63,3.2,2.43,2.13,3.84,5.13,4.22,8.99h-7.11c-.17-2.23-.79-3.85-1.86-4.85-1.07-1-2.69-1.5-4.87-1.5-2.37,0-4.15.85-5.32,2.55s-1.78,4.33-1.81,7.91v2.61c0,3.73.56,6.46,1.7,8.18,1.13,1.72,2.91,2.58,5.35,2.58,2.2,0,3.84-.5,4.92-1.51s1.7-2.56,1.86-4.66h7.11Z"/>
      <path class="cls-3" d="M60.87,103.6c0-1.34-.47-2.38-1.42-3.09-.95-.72-2.66-1.48-5.12-2.28-2.47-.8-4.42-1.58-5.86-2.36-3.92-2.12-5.88-4.97-5.88-8.56,0-1.87.53-3.53,1.58-4.99,1.05-1.46,2.56-2.6,4.53-3.43s4.18-1.23,6.63-1.23,4.66.45,6.59,1.34c1.93.89,3.43,2.15,4.49,3.78,1.07,1.63,1.6,3.48,1.6,5.55h-7.11c0-1.58-.5-2.81-1.49-3.69-1-.88-2.39-1.32-4.2-1.32s-3.09.37-4.05,1.1c-.96.73-1.45,1.7-1.45,2.9,0,1.12.56,2.06,1.7,2.82,1.13.76,2.79,1.47,4.99,2.13,4.05,1.22,6.99,2.73,8.84,4.53s2.77,4.05,2.77,6.73c0,2.99-1.13,5.33-3.39,7.03-2.26,1.7-5.3,2.55-9.13,2.55-2.66,0-5.07-.49-7.26-1.46-2.18-.97-3.84-2.3-4.99-4-1.15-1.69-1.72-3.65-1.72-5.88h7.14c0,3.81,2.28,5.71,6.83,5.71,1.69,0,3.01-.34,3.96-1.03s1.42-1.65,1.42-2.88Z"/>
      <path class="cls-3" d="M85.57,104.09l7.83-25.96h7.92l-12.02,34.52h-7.42l-11.97-34.52h7.9l7.78,25.96Z"/>
    </g>
    <g>
      <rect class="cls-3" x="44.19" y="122.18" width="22.52" height="59.85"/>
      <path class="cls-3" d="M68.7,184.03h-26.52v-63.85h26.52v63.85ZM46.19,180.03h18.52v-55.85h-18.52v55.85Z"/>
    </g>
    <path class="cls-3" d="M81.03,177.22H29.86c-.34,0-.51.41-.27.65l25.59,25.59c.15.15.39.15.54,0l25.59-25.59c.24-.24.07-.65-.27-.65Z"/>
    <path class="cls-1" d="M107.89,31.58h-31.19V3c-.16-.96-1.35-3-3-3H3C1.34,0,0,1.34,0,3v150.25c0,1.66,1.34,3,3,3h33.95v-6H6V6h64.7v28.58c0,1.66,1.34,3,3,3h31.19v112.67h-30.96v6h33.96c1.65,0,3-1.34,3-3V34.58c0-.84-1.35-3-3-3Z"/>
  </g>
</svg>