<?xml version="1.0" encoding="UTF-8"?>
<svg id="Layer_2" data-name="Layer 2" xmlns="http://www.w3.org/2000/svg" viewBox="0 0 825.46 567.11">
  <defs>
    <style>
      .cls-1 {
        fill: #fff;
        stroke-width: 0px;
      }
    </style>
  </defs>
  <g id="Layer_1-2" data-name="Layer 1">
    <path class="cls-1" d="M719.54,37.48L548.13,0h-271.09L105.81,37.48,0,143.38v9.48l405.79,414.14h6.23v.11h7.22l406.22-414.22v-9.48l-105.92-105.93ZM566.69,92.23l136.44-30.45-22.44,135.11-114-104.66ZM663.5,209.78l-227.7,17.33,112-126.22,115.7,108.89ZM280.69,20h265.33l125.33,28-125.77,28h-264.89l-125.34-28,125.34-28ZM392.39,227.11l-219.11-17.33,107.11-108.89,112,126.22ZM260.24,92l-102.66,104.89L123.8,61.78l136.44,30.22ZM104.24,67.56l33.78,132-113.33-54.67,79.55-77.33ZM56.24,182.23l90.34,43,161.66,212.11L56.24,182.23ZM403.8,528L176.24,229.34l227.56,20.44v278.22ZM414.02,224.45l-110.67-128.89h221.34l-110.67,128.89ZM422.67,248.89l240.83-19.55-241.78,301.03.95-281.48ZM539.06,415.41l153.48-190.22,74.07-39.11-227.55,229.33ZM700.24,198.82l24.59-130.37,77.04,76.74-101.63,53.63Z"/>
  </g>
</svg>